HIERARCHY
ROOT joint_Root
{
  OFFSET 0 0 0
  CHANNELS 6 Xposition Yposition Zposition Zrotation Xrotation Yrotation
  JOINT Hips
  {
    OFFSET 0 93.9241 -3
    CHANNELS 6 Xposition Yposition Zposition Zrotation Xrotation Yrotation
    JOINT Spine
    {
      OFFSET 15.7357 0 0
      CHANNELS 6 Xposition Yposition Zposition Zrotation Xrotation Yrotation
      JOINT Chest
      {
        OFFSET 8.98455 -0.406207 0
        CHANNELS 6 Xposition Yposition Zposition Zrotation Xrotation Yrotation
        JOINT Neck
        {
          OFFSET 16.3773 0 0
          CHANNELS 6 Xposition Yposition Zposition Zrotation Xrotation Yrotation
          JOINT Head
          {
            OFFSET 6.45672 0 0
            CHANNELS 6 Xposition Yposition Zposition Zrotation Xrotation Yrotation
            End Site
            {
              OFFSET 0 0 0
            }
          }
        }
        JOINT Shoulder_L
        {
          OFFSET 12.9942 -0.242716 4.98039
          CHANNELS 6 Xposition Yposition Zposition Zrotation Xrotation Yrotation
          JOINT UpperArm_L
          {
            OFFSET 5.34809 0 0
            CHANNELS 6 Xposition Yposition Zposition Zrotation Xrotation Yrotation
            JOINT LowerArm_L
            {
              OFFSET 24.3286 1.87007e-05 0
              CHANNELS 6 Xposition Yposition Zposition Zrotation Xrotation Yrotation
              JOINT Hand_L
              {
                OFFSET 22.2916 0 0
                CHANNELS 6 Xposition Yposition Zposition Zrotation Xrotation Yrotation
                End Site
                {
                  OFFSET 0 0 0
                }
              }
            }
          }
        }
        JOINT Shoulder_R
        {
          OFFSET 12.9945 -0.242716 -4.98039
          CHANNELS 6 Xposition Yposition Zposition Zrotation Xrotation Yrotation
          JOINT UpperArm_R
          {
            OFFSET -5.34813 0 0
            CHANNELS 6 Xposition Yposition Zposition Zrotation Xrotation Yrotation
            JOINT LowerArm_R
            {
              OFFSET -24.3289 0.000322201 0
              CHANNELS 6 Xposition Yposition Zposition Zrotation Xrotation Yrotation
              JOINT Hand_R
              {
                OFFSET -22.2915 -0.000108084 0
                CHANNELS 6 Xposition Yposition Zposition Zrotation Xrotation Yrotation
                End Site
                {
                  OFFSET 0 0 0
                }
              }
            }
          }
        }
      }
    }
    JOINT UpperLeg_L
    {
      OFFSET -2.19248 -6.46944 0
      CHANNELS 6 Xposition Yposition Zposition Zrotation Xrotation Yrotation
      JOINT LowerLeg_L
      {
        OFFSET 39.0811 0 -1.23785e-05
        CHANNELS 6 Xposition Yposition Zposition Zrotation Xrotation Yrotation
        JOINT Foot_L
        {
          OFFSET 40.9854 0 -1.26872e-05
          CHANNELS 6 Xposition Yposition Zposition Zrotation Xrotation Yrotation
          JOINT Toes_L
          {
            OFFSET 11.7543 0 0
            CHANNELS 6 Xposition Yposition Zposition Zrotation Xrotation Yrotation
            End Site
            {
              OFFSET 0 0 0
            }
          }
        }
      }
    }
    JOINT UpperLeg_R
    {
      OFFSET -2.19251 6.46944 0
      CHANNELS 6 Xposition Yposition Zposition Zrotation Xrotation Yrotation
      JOINT LowerLeg_R
      {
        OFFSET -39.0811 -0.00228153 -0.0401928
        CHANNELS 6 Xposition Yposition Zposition Zrotation Xrotation Yrotation
        JOINT Foot_R
        {
          OFFSET -40.9854 0 0
          CHANNELS 6 Xposition Yposition Zposition Zrotation Xrotation Yrotation
          JOINT Toes_R
          {
            OFFSET -11.7543 0 0
            CHANNELS 6 Xposition Yposition Zposition Zrotation Xrotation Yrotation
            End Site
            {
              OFFSET 0 0 0
            }
          }
        }
      }
    }
  }
}
MOTION
Frames:	8
Frame Time:	0.0333333
0 0 0 0 0 -0 241.241 91.8767 -1.43643 90.0135 -70.0034 3.34715 15.7357 5.1072e-06 -5.51765e-07 110.083 82.0055 -111.972 8.98455 -0.406207 -4.3199e-07 7.3698 5.47651 -4.12942 16.3773 -1.3905e-06 -6.99897e-07 0.435928 15.4513 2.9253 6.45672 -1.25837e-06 -1.02172e-07 4.61406 20.1533 2.36007 12.9942 -0.242716 4.98039 -89.9409 -0.344107 -95.2463 5.34809 -7.22636e-06 -6.2814e-07 -72.8784 0.139187 -13.2676 24.3286 1.87007e-05 4.90208e-06 2.7922 4.3549 -32.6952 22.2916 -9.88446e-07 4.63217e-06 20.7732 5.49242 -6.23097 12.9945 -0.242716 -4.98039 89.9315 1.63596 -102.601 -5.34813 -1.25947e-06 -3.79883e-06 -76.3007 -10.9172 26.7386 -24.3289 0.000322201 -8.65921e-06 -2.60954 -11.6591 -12.7043 -22.2915 -0.000108084 -4.47941e-06 25.4688 5.67562 -18.3905 -2.19248 -6.46944 -1.22533e-07 178.124 12.1773 -6.65868 39.0811 -6.73843e-06 -1.23785e-05 0.0268748 -0.0108212 25.7116 40.9854 -6.48686e-06 -1.26872e-05 1.34279 -2.40639 -65.78 11.7543 -2.30145e-07 3.05095e-06 0.0346224 -0.0386381 -16.9556 -2.19251 6.46944 -1.45247e-06 -179.053 13.9559 157.654 -39.0811 -0.00228153 -0.0401928 0.0830312 -0.0402355 64.6166 -40.9854 7.72618e-06 5.99936e-06 3.46838 -16.4392 -41.0038 -11.7543 -5.6619e-06 -5.58687e-06 0.413469 -0.454157 -19.9925 
0 0 0 0 0 -0 239.02 92.1564 -1.66399 87.6034 -69.4597 0.735761 15.7357 5.1072e-06 -5.51765e-07 105.189 82.1835 -106.713 8.98455 -0.406207 -4.3199e-07 7.3914 4.08583 -3.31136 16.3773 -1.3905e-06 -6.99897e-07 0.127451 15.5516 2.65841 6.45672 -1.25837e-06 -1.02172e-07 3.85047 21.2609 2.64628 12.9942 -0.242716 4.98039 -89.8771 -0.750167 -95.6885 5.34809 -7.22636e-06 -6.2814e-07 -69.4428 1.9695 -21.2697 24.3286 1.87007e-05 4.90208e-06 4.96835 6.41836 -37.8543 22.2916 -9.88446e-07 4.63217e-06 20.8986 5.48837 -6.07119 12.9945 -0.242716 -4.98039 89.9472 1.0018 -101.978 -5.34813 -1.25947e-06 -3.79883e-06 -77.5867 -11.8008 30.2644 -24.3289 0.000322201 -8.65921e-06 -2.391 -11.6089 -11.7171 -22.2915 -0.000108084 -4.47941e-06 24.9557 5.67456 -18.1725 -2.19248 -6.46944 -1.22533e-07 179.478 12.5219 -4.5206 39.0811 -6.73843e-06 -1.23785e-05 0.0167205 -0.00119873 23.6556 40.9854 -6.48686e-06 -1.26872e-05 0.960697 -2.10595 -66.3151 11.7543 -2.30145e-07 3.05095e-06 0.022343 -0.0248811 -16.8212 -2.19251 6.46944 -1.45247e-06 -177.892 13.3673 155.132 -39.0811 -0.00228153 -0.0401928 -0.0154775 0.00899431 59.1797 -40.9854 7.72618e-06 5.99936e-06 6.20763 -20.0885 -46.6453 -11.7543 -5.6619e-06 -5.58687e-06 0.456871 -0.505082 -20.3649 
0 0 0 0 0 -0 236.882 92.4223 -1.99719 85.4821 -68.7282 -2.15073 15.7357 5.1072e-06 -5.51765e-07 101.435 82.3887 -102.64 8.98455 -0.406207 -4.3199e-07 7.19477 3.0132 -2.5973 16.3773 -1.3905e-06 -6.99897e-07 -0.541317 15.3711 2.53372 6.45672 -1.25837e-06 -1.02172e-07 3.17855 22.0287 2.88664 12.9942 -0.242716 4.98039 -89.813 -1.22009 -96.2777 5.34809 -7.22636e-06 -6.2814e-07 -66.1966 2.18581 -28.3132 24.3286 1.87007e-05 4.90208e-06 7.19087 7.68313 -43.3416 22.2916 -9.88446e-07 4.63217e-06 21.5567 5.47598 -5.59522 12.9945 -0.242716 -4.98039 89.9549 0.672158 -101.161 -5.34813 -1.25947e-06 -3.79883e-06 -78.9816 -11.7425 33.3863 -24.3289 0.000322201 -8.65921e-06 -2.16726 -11.1822 -11.0368 -22.2915 -0.000108084 -4.47941e-06 24.4387 5.67497 -18.2563 -2.19248 -6.46944 -1.22534e-07 -178.987 12.7071 -2.71982 39.0811 -6.73843e-06 -1.23785e-05 0.0320954 0.0329905 20.9749 40.9854 -6.48686e-06 -1.26872e-05 0.548235 -1.55207 -66.4975 11.7543 -2.30145e-07 3.05095e-06 0.00917614 -0.0101829 -16.6772 -2.19251 6.46944 -1.45247e-06 -177.102 12.7761 154.104 -39.0811 -0.00228153 -0.0401928 -0.0460164 0.0383568 48.947 -40.9854 7.72618e-06 5.99936e-06 7.44399 -22.0872 -49.2936 -11.7543 -5.6619e-06 -5.58687e-06 0.453685 -0.501333 -20.3374 
0 0 0 0 0 -0 234.677 92.559 -2.28479 84.9795 -68.1647 -3.73765 15.7357 5.1072e-06 -5.51764e-07 98.2222 82.5782 -99.2954 8.98455 -0.406207 -4.3199e-07 6.94938 2.12314 -2.27316 16.3773 -1.3905e-06 -6.99897e-07 -1.39871 15.2539 2.44341 6.45672 -1.25837e-06 -1.02172e-07 2.43648 22.4836 2.88558 12.9942 -0.242716 4.98039 -89.7171 -1.93235 -96.6678 5.34809 -7.22636e-06 -6.2814e-07 -64.5945 0.965826 -34.2477 24.3286 1.87007e-05 4.90208e-06 7.66395 6.95572 -47.9942 22.2916 -9.88446e-07 4.63217e-06 21.5271 5.46529 -5.19581 12.9945 -0.242716 -4.98039 89.9963 0.0471623 -100.462 -5.34813 -1.25947e-06 -3.79883e-06 -80.0923 -12.5332 35.8983 -24.3289 0.000322201 -8.65921e-06 -1.96662 -10.6329 -10.5362 -22.2915 -0.000108084 -4.47941e-06 23.9823 5.67415 -18.0902 -2.19248 -6.46944 -1.22534e-07 -177.91 12.6734 -1.2147 39.0811 -6.73843e-06 -1.23785e-05 -0.00799744 0.0548406 18.2333 40.9854 -6.48686e-06 -1.26872e-05 0.172648 -0.909133 -66.5618 11.7543 -2.30145e-07 3.05095e-06 -0.0156633 0.0152073 -16.5771 -2.19251 6.46944 -1.45247e-06 -177.311 11.8079 155.554 -39.0811 -0.00228153 -0.0401928 -0.0445825 0.060501 33.5305 -40.9854 7.72618e-06 5.99936e-06 8.05917 -22.6033 -48.711 -11.7543 -5.6619e-06 -5.58687e-06 0.462605 -0.511883 -20.4144 
0 0 0 0 0 -0 232.236 92.4424 -2.45774 86.9257 -67.3714 -3.30191 15.7357 5.1072e-06 -5.51764e-07 94.0876 82.8841 -95.3867 8.98455 -0.406207 -4.3199e-07 6.44328 1.02642 -2.65312 16.3773 -1.3905e-06 -6.99897e-07 -2.39839 15.1127 2.30531 6.45672 -1.25837e-06 -1.02172e-07 1.46436 22.8379 3.30024 12.9942 -0.242716 4.98039 -89.528 -3.34636 -96.967 5.34809 -7.22636e-06 -6.2814e-07 -65.2274 -0.671188 -37.968 24.3286 1.87007e-05 4.90208e-06 8.14738 6.09862 -53.403 22.2916 -9.88446e-07 4.63217e-06 21.8716 5.44231 -4.36572 12.9945 -0.242716 -4.98039 90.0401 -0.458711 -100.013 -5.34813 -1.25947e-06 -3.79883e-06 -80.7996 -13.589 37.8886 -24.3289 0.000322201 -8.65921e-06 -1.73376 -9.92638 -9.95322 -22.2915 -0.000108084 -4.47941e-06 23.5829 5.67284 -17.8505 -2.19248 -6.46944 -1.22533e-07 -177.769 12.8597 0.190993 39.0811 -6.73843e-06 -1.23785e-05 -0.00962269 0.0570811 15.5564 40.9854 -6.48686e-06 -1.26872e-05 -0.179633 -0.345924 -66.8339 11.7543 -2.30145e-07 3.05095e-06 -0.0411619 0.0402179 -16.5765 -2.19251 6.46944 -1.45247e-06 -178.879 10.6938 160.004 -39.0811 -0.00228153 -0.0401928 -0.0261946 0.0919873 12.59 -40.9854 7.72618e-06 5.99936e-06 8.25514 -21.3765 -44.3883 -11.7543 -5.6619e-06 -5.58687e-06 0.471758 -0.52272 -20.493 
0 0 0 0 0 -0 229.383 92.1268 -2.79832 88.0604 -66.2539 -3.70471 15.7357 5.1072e-06 -5.51765e-07 89.9827 83.2465 -91.3775 8.98455 -0.406207 -4.3199e-07 5.74295 0.0204937 -2.78756 16.3773 -1.3905e-06 -6.99897e-07 -3.29279 14.8662 2.23678 6.45672 -1.25837e-06 -1.02172e-07 0.649045 22.9669 3.18216 12.9942 -0.242716 4.98039 -89.4576 -3.98223 -97.2364 5.34809 -7.22636e-06 -6.2814e-07 -65.9195 -1.50429 -39.7252 24.3286 1.87007e-05 4.90208e-06 6.31037 3.97633 -57.9214 22.2916 -9.88446e-07 4.63217e-06 21.0873 5.43426 -4.08579 12.9945 -0.242716 -4.98039 90.0613 -0.665526 -99.7393 -5.34813 -1.25947e-06 -3.79883e-06 -80.7125 -14.8096 39.2556 -24.3289 0.000322201 -8.65921e-06 -1.54299 -9.50294 -9.26005 -22.2915 -0.000108084 -4.47941e-06 23.4743 5.67304 -17.8876 -2.19248 -6.46944 -1.22534e-07 -177.146 12.9007 1.20522 39.0811 -6.73843e-06 -1.23785e-05 0.0117534 -0.0302158 13.9253 40.9854 -6.48686e-06 -1.26872e-05 0.221383 0.49429 -67.8571 11.7543 -2.30145e-07 3.05095e-06 -0.391288 -0.342672 -16.3453 -2.19251 6.46944 -1.45247e-06 -179.826 10.2198 159.265 -39.0811 -0.00228153 -0.0401928 0.00306999 0.000897019 4.25146 -40.9854 7.72618e-06 5.99936e-06 5.85567 -17.7148 -44.987 -11.7543 -5.6619e-06 -5.58687e-06 0.43346 -0.47753 -20.1637 
0 0 0 0 0 -0 225.944 91.743 -3.39982 86.7391 -65.4804 -5.99995 15.7357 5.1072e-06 -5.51764e-07 89.2846 83.5194 -90.5293 8.98455 -0.406207 -4.3199e-07 5.19399 -0.133465 -2.48046 16.3773 -1.3905e-06 -6.99897e-07 -3.78954 14.4023 2.25465 6.45672 -1.25837e-06 -1.02172e-07 -0.427887 22.6118 3.14527 12.9942 -0.242716 4.98039 -89.5393 -3.56453 -97.6294 5.34809 -7.22636e-06 -6.2814e-07 -65.8346 -1.03593 -40.1605 24.3286 1.87007e-05 4.90208e-06 7.26456 4.15398 -60.3879 22.2916 -9.88446e-07 4.63217e-06 21.2612 5.4306 -3.95999 12.9945 -0.242716 -4.98039 90.0211 -0.22443 -99.6088 -5.34813 -1.25947e-06 -3.79883e-06 -80.0704 -15.6751 39.6905 -24.3289 0.000322201 -8.65921e-06 -1.3135 -8.97959 -8.34993 -22.2915 -0.000108084 -4.47941e-06 23.5561 5.67272 -17.8346 -2.19248 -6.46944 -1.22533e-07 -174.983 11.7434 1.61551 39.0811 -6.73843e-06 -1.23785e-05 0.0158962 -0.0445161 14.3663 40.9854 -6.48686e-06 -1.26872e-05 -0.935497 2.63488 -68.524 11.7543 -2.30145e-07 3.05095e-06 -0.223356 -0.230727 -18.0637 -2.19251 6.46944 -1.45247e-06 -178.698 11.1879 159.502 -39.0811 -0.00228153 -0.0401928 0.00324053 -0.00401963 0.0450189 -40.9854 7.72618e-06 5.99936e-06 2.53244 -11.719 -48.1628 -11.7543 -5.6619e-06 -5.58687e-06 0.424449 -0.466969 -20.0864 
0 0 0 0 0 -0 221.898 91.4817 -4.1896 83.098 -65.6431 -9.58955 15.7357 5.1072e-06 -5.51764e-07 92.7213 83.5386 -93.6602 8.98455 -0.406207 -4.3199e-07 5.14835 0.6337 -1.9043 16.3773 -1.3905e-06 -6.99897e-07 -3.95462 14.0539 2.44797 6.45672 -1.25837e-06 -1.02172e-07 -1.68912 22.166 3.2644 12.9942 -0.242716 4.98039 -89.672 -2.62432 -97.8743 5.34809 -7.22636e-06 -6.2814e-07 -65.3818 0.305454 -38.5698 24.3286 1.87007e-05 4.90208e-06 9.06499 5.04969 -61.1058 22.2916 -9.88446e-07 4.63217e-06 21.1433 5.42417 -3.74126 12.9945 -0.242716 -4.98039 89.9325 0.736253 -99.7575 -5.34813 -1.25947e-06 -3.79883e-06 -79.8114 -14.9499 38.3959 -24.3289 0.000322201 -8.65921e-06 -1.17941 -9.41 -7.17122 -22.2915 -0.000108084 -4.47941e-06 24.2114 5.67243 -17.7734 -2.19248 -6.46944 -1.22533e-07 -171.945 10.049 2.96985 39.0811 -6.73843e-06 -1.23785e-05 0.0302936 -0.096325 15.2016 40.9854 -6.48686e-06 -1.26872e-05 -2.11128 4.46464 -67.501 11.7543 -2.30145e-07 3.05095e-06 0.103048 -0.16599 -22.1033 -2.19251 6.46944 -1.45247e-06 -175.654 12.1915 159.925 -39.0811 -0.00228153 -0.0401928 0.00381157 -0.0197172 1.32146 -40.9854 7.72618e-06 5.99936e-06 2.90367 -10.744 -45.4713 -11.7543 -5.6619e-06 -5.58687e-06 0.50003 -0.556433 -20.7377 
